
<svg xmlns="http://www.w3.org/2000/svg" viewBox="0 0 200 60" fill="none">
  <path d="M30 10C25.5817 10 22 13.5817 22 18C22 22.4183 25.5817 26 30 26C34.4183 26 38 22.4183 38 18C38 13.5817 34.4183 10 30 10ZM30 22C27.7909 22 26 20.2091 26 18C26 15.7909 27.7909 14 30 14C32.2091 14 34 15.7909 34 18C34 20.2091 32.2091 22 30 22Z" fill="#5b925f"/>
  <path d="M30 30C25.5817 30 22 33.5817 22 38C22 42.4183 25.5817 46 30 46C34.4183 46 38 42.4183 38 38C38 33.5817 34.4183 30 30 30ZM30 42C27.7909 42 26 40.2091 26 38C26 35.7909 27.7909 34 30 34C32.2091 34 34 35.7909 34 38C34 40.2091 32.2091 42 30 42Z" fill="#5b925f"/>
  <path d="M38 30C33.5817 30 30 33.5817 30 38C30 42.4183 33.5817 46 38 46C42.4183 46 46 42.4183 46 38C46 33.5817 42.4183 30 38 30ZM38 42C35.7909 42 34 40.2091 34 38C34 35.7909 35.7909 34 38 34C40.2091 34 42 35.7909 42 38C42 40.2091 40.2091 42 38 42Z" fill="#78a97b"/>
  <path d="M22 30C17.5817 30 14 33.5817 14 38C14 42.4183 17.5817 46 22 46C26.4183 46 30 42.4183 30 38C30 33.5817 26.4183 30 22 30ZM22 42C19.7909 42 18 40.2091 18 38C18 35.7909 19.7909 34 22 34C24.2091 34 26 35.7909 26 38C26 40.2091 24.2091 42 22 42Z" fill="#78a97b"/>
  <path d="M46 18C41.5817 18 38 21.5817 38 26C38 30.4183 41.5817 34 46 34C50.4183 34 54 30.4183 54 26C54 21.5817 50.4183 18 46 18ZM46 30C43.7909 30 42 28.2091 42 26C42 23.7909 43.7909 22 46 22C48.2091 22 50 23.7909 50 26C50 28.2091 48.2091 30 46 30Z" fill="#9ac09c"/>
  <path d="M14 18C9.58172 18 6 21.5817 6 26C6 30.4183 9.58172 34 14 34C18.4183 34 22 30.4183 22 26C22 21.5817 18.4183 18 14 18ZM14 30C11.7909 30 10 28.2091 10 26C10 23.7909 11.7909 22 14 22C16.2091 22 18 23.7909 18 26C18 28.2091 16.2091 30 14 30Z" fill="#9ac09c"/>
  <text x="65" y="35" font-family="'Raleway', sans-serif" font-size="18" font-weight="600" fill="#48764c">Nech Mě Růst</text>
  <text x="65" y="50" font-family="'Raleway', sans-serif" font-size="10" fill="#78a97b">Tvoříme prostor pro růst</text>
</svg>
